<svg xmlns="http://www.w3.org/2000/svg" viewBox="0 0 415 185"><defs><style>.cls-1{fill:#9d9d9c;}.cls-2{fill:none;}</style></defs><g id="Capa_2" data-name="Capa 2"><g id="Capa_1-2" data-name="Capa 1"><path class="cls-1" d="M130,114.58h2v1.27H104.54V114.7h1.9a4.76,4.76,0,0,0,3.68-1.71,4.55,4.55,0,0,0,1.26-3.74l-5.7-63.78L79.05,104.69a50.23,50.23,0,0,0-4.31,12.93H73.47L41,47.25l-5.45,62A4.56,4.56,0,0,0,36.83,113a4.62,4.62,0,0,0,3.55,1.71h2v1.15H17.81v-1.27h2A9.35,9.35,0,0,0,26,112.42a8.87,8.87,0,0,0,3.1-5.83L38.6,25.31h1.27l35.38,76.46,34.62-76.46H111l9.77,81.28a8.42,8.42,0,0,0,5.07,7.1A9.84,9.84,0,0,0,130,114.58Z"/><path class="cls-1" d="M228.14,114.58h1v1.27H200.63v-1.27h1.14a4.76,4.76,0,0,0,4-1.72,5.37,5.37,0,0,0,1.33-3.22,9.57,9.57,0,0,0-.51-3L198.48,85H164.24l-8.5,21.67a9.42,9.42,0,0,0-.5,3,5.25,5.25,0,0,0,1.33,3.16,4.74,4.74,0,0,0,4,1.72h1.14v1.27H136.22v-1.27h1.14a11,11,0,0,0,6.21-2,14.46,14.46,0,0,0,5-6l28.66-68.22q4.68-10.26,4.69-13.06H183l34,81.28a13.63,13.63,0,0,0,4.81,6A11.22,11.22,0,0,0,228.14,114.58ZM165.76,81.23H197l-15.21-40.7Z"/><path class="cls-1" d="M259.26,31h-8.11v75.57a7.73,7.73,0,0,0,2.34,5.65,7.87,7.87,0,0,0,5.77,2.34h1.53l.12,1.27H233.14v-1.27h1.66a7.75,7.75,0,0,0,5.63-2.29,7.92,7.92,0,0,0,2.48-5.58V36.34a8.19,8.19,0,0,0-2.48-5.64,7.69,7.69,0,0,0-5.63-2.35h-1.66V27.09h34.24q11.53,0,18.13,6.4T292.1,50.1a26.39,26.39,0,0,1-6.27,17.62q-6.27,7.43-15.28,7.43a17,17,0,0,1,4.5,3.48A45.18,45.18,0,0,1,279.68,84q10.9,15.58,14.2,19.21t4.69,4.94a36.11,36.11,0,0,0,3.05,2.6,17.52,17.52,0,0,0,3.29,2,17.88,17.88,0,0,0,7.86,1.77v1.27h-7a25.87,25.87,0,0,1-10.15-2,25.39,25.39,0,0,1-7-4.06,44.32,44.32,0,0,1-4.06-4q-1.71-2-9.45-13.13t-9-12.74c-.85-1.06-1.73-2.1-2.67-3.1q-4.05-4.32-8.11-4.32V71.21a21.32,21.32,0,0,0,2.67.13c1.09,0,2.45,0,4.05-.13q15.72-.37,19.78-13.18a16.18,16.18,0,0,0,.76-4.76V50.42q-.25-8.49-4.43-13.7a14.86,14.86,0,0,0-11.29-5.58C264.84,31.06,262.31,31,259.26,31Z"/><path class="cls-1" d="M398.36,114.58h1v1.27H370.85v-1.27H372a4.73,4.73,0,0,0,4-1.72,5.31,5.31,0,0,0,1.33-3.22,9.84,9.84,0,0,0-.5-3L368.69,85H334.46L326,106.71a9.42,9.42,0,0,0-.5,3,5.29,5.29,0,0,0,1.32,3.16,4.74,4.74,0,0,0,4,1.72h1.14v1.27H306.43v-1.27h1.15a11,11,0,0,0,6.21-2,14.37,14.37,0,0,0,4.94-6l28.66-68.22q4.68-10.26,4.69-13.06h1.14l34,81.28a13.6,13.6,0,0,0,4.83,6A11.17,11.17,0,0,0,398.36,114.58ZM336,81.23h31.19L352,40.53Z"/><path class="cls-1" d="M125.58,159.34a1.15,1.15,0,0,1-.12.67,1.29,1.29,0,0,1-.49.61c-.48.29-1.22.69-2.22,1.19s-2,1-2.94,1.52a10.76,10.76,0,0,1-1.47.65c-.72.27-1.48.55-2.28.83s-1.55.53-2.28.74a5.8,5.8,0,0,1-1.46.34,5.55,5.55,0,0,1-2.45-.55,1.14,1.14,0,0,1-.6-1.45c.14-.52.39-1.28.74-2.27s.78-2.1,1.28-3.3,1-2.45,1.58-3.75,1.1-2.49,1.64-3.58a26,26,0,0,1,1.55-2.78,3.84,3.84,0,0,1,1.25-1.35l.83-.42a6.9,6.9,0,0,1,1-.41,4.24,4.24,0,0,1,1-.2.85.85,0,0,1,.75.31,2,2,0,0,1,0,.83,1.25,1.25,0,0,1-.17.39L114.92,162a2.24,2.24,0,0,1,0,.41,1,1,0,0,0,0,.56.62.62,0,0,0,.5.31,3.14,3.14,0,0,0,1.33-.34c.9-.37,1.89-.76,3-1.19s2.51-1.06,4.22-1.91c.22-.12.53-.26.94-.45S125.54,159.16,125.58,159.34Zm-.06-25.08a5.63,5.63,0,0,1-.22,1.67,4.44,4.44,0,0,1-.89,1.5,5.17,5.17,0,0,1-1.47,1.11,1.77,1.77,0,0,1-1.36.27c-.22-.07-.48-.37-.78-.91a4.52,4.52,0,0,1-.38-2.3,3.43,3.43,0,0,1,.47-1.72,6.85,6.85,0,0,1,1.19-1.39,6.65,6.65,0,0,1,1.3-.83,1.25,1.25,0,0,1,2,.86A4.88,4.88,0,0,1,125.52,134.26Z"/><path class="cls-1" d="M156.09,159.34a1,1,0,0,1-.14.67,1.3,1.3,0,0,1-.47.55c-.52.3-1.27.71-2.24,1.22s-2,1-3,1.55a12.54,12.54,0,0,1-1.37.65c-.64.27-1.37.56-2.19.85a23.74,23.74,0,0,1-2.55.78,10,10,0,0,1-2.5.33,3.37,3.37,0,0,1-2-.66,2,2,0,0,1-.94-1.72,65.44,65.44,0,0,1,2.66-6.1c.63-1.3,1.19-2.47,1.67-3.53s.83-1.87,1.05-2.47.39-.87.28-.94a.44.44,0,0,0-.28,0,6.77,6.77,0,0,0-1.19.5l-1.47.77a49.24,49.24,0,0,0-6.13,4.47q-3.81,3.13-9.68,8.69l-.76.64a1.77,1.77,0,0,1-1.07.25h-2c-.4,0-.58-.16-.52-.45a3.87,3.87,0,0,1,.19-.72c.26-.81.6-1.78,1-2.89s.88-2.24,1.36-3.41,1-2.33,1.47-3.49,1-2.24,1.41-3.22.82-1.8,1.14-2.47.53-1.09.64-1.28a1.21,1.21,0,0,1,.44-.61,3.13,3.13,0,0,1,.67-.19c.29-.06.59-.1.88-.14l1-.11a6.67,6.67,0,0,1,.74-.08l.81-.06c.29,0,.65,0,1.06,0s.58.08.63.34-.16.76-.63,1.49c-.12.19-.37.66-.75,1.42l-1.25,2.41c-.45.86-.86,1.67-1.25,2.44l-.75,1.5c-.07.19-.15.35-.22.5a.54.54,0,0,0-.11.33c0,.11,0,.15.16.11a8.14,8.14,0,0,0,2.92-1.44c1.42-.93,3.32-2.27,5.68-4q7-5.33,9.16-5.32a3.26,3.26,0,0,1,1.33.27,3.13,3.13,0,0,1,1,.7,2.46,2.46,0,0,1,.55.86,1.17,1.17,0,0,1,.06.77,9.57,9.57,0,0,0-.5,1L149,152.35q-.68,1.4-1.44,3c-.52,1.08-1,2.14-1.5,3.16s-.91,1.93-1.28,2.75-.61,1.36-.72,1.66c-.22.55-.06.85.47.89a6.51,6.51,0,0,0,2.64-.78c.74-.33,1.38-.61,1.91-.83l1.58-.67,1.67-.72q.88-.39,2.16-1.05c.22-.12.54-.26,1-.45S156.05,159.16,156.09,159.34Z"/><path class="cls-1" d="M171.24,159.34a1.11,1.11,0,0,1-.14.67,1.87,1.87,0,0,1-.47.61c-.53.29-1.24.72-2.17,1.27a21.4,21.4,0,0,1-3,1.5c-1.6.7-3.14,1.31-4.64,1.81a12.41,12.41,0,0,1-3.85.74c-2.26,0-3.39-1-3.39-3.11a4.82,4.82,0,0,1,.39-1.62c.26-.69.59-1.57,1-2.64.14-.34.34-.81.58-1.42s.53-1.32.86-2.14.7-1.7,1.11-2.68.82-2,1.22-3l-4.05.61a2.21,2.21,0,0,1-.66.11.89.89,0,0,1-.42-.08c-.09-.06-.1-.17,0-.36a3.65,3.65,0,0,1,.89-1.45c.15-.07.68-.22,1.61-.47s2.14-.5,3.66-.8c.55-1.37,1.1-2.71,1.64-4s1-2.49,1.44-3.53.78-1.88,1-2.55.44-1,.48-1.16a3.12,3.12,0,0,1,1.55-1.67c.92-.29,1.63-.52,2.11-.69s.75-.27.83-.3a2.84,2.84,0,0,1,1.28-.12.56.56,0,0,1,.44.36,1.06,1.06,0,0,1-.08.61l-.25.64c-.23.45-.52,1.07-.89,1.86s-.79,1.7-1.25,2.72l-1.47,3.27c-.52,1.17-1,2.36-1.61,3.58l1.53-.28c.46-.07.86-.15,1.19-.22l1.11-.22c.33-.07.63-.13.89-.16a2,2,0,0,1,.61.08c.18.05.28.21.28.47s0,.35,0,.61a2.36,2.36,0,0,1-.22.78,2.11,2.11,0,0,1-.59.69,1.88,1.88,0,0,1-1,.36l-1.8.22c-.91.11-2,.26-3.14.44-.59,1.34-1.16,2.62-1.72,3.86l-1.47,3.33c-.42,1-.78,1.8-1.05,2.44s-.46,1.06-.53,1.25c-.7,1.7-.76,2.88-.16,3.55s1.73.65,3.43-.06l3-1.24c1.15-.47,2.58-1.12,4.28-2,.22-.12.53-.26.91-.45S171.16,159.16,171.24,159.34Z"/><path class="cls-1" d="M186.66,159.34a1.14,1.14,0,0,1-.11.67,1.37,1.37,0,0,1-.5.61c-.48.29-1.22.69-2.22,1.19s-2,1-2.94,1.52a10.76,10.76,0,0,1-1.47.65c-.72.27-1.48.55-2.28.83s-1.55.53-2.27.74a6,6,0,0,1-1.47.34,5.5,5.5,0,0,1-2.44-.55,1.14,1.14,0,0,1-.61-1.45c.15-.52.39-1.28.74-2.27s.79-2.1,1.28-3.3,1-2.45,1.58-3.75,1.1-2.49,1.64-3.58a27.82,27.82,0,0,1,1.55-2.78,3.84,3.84,0,0,1,1.25-1.35l.83-.42a6.9,6.9,0,0,1,1-.41,4.32,4.32,0,0,1,1-.2.87.87,0,0,1,.75.31,2.18,2.18,0,0,1-.06.83,1.23,1.23,0,0,1-.16.39L176,162a2.6,2.6,0,0,1-.06.41.88.88,0,0,0,.06.56.6.6,0,0,0,.49.31,3.21,3.21,0,0,0,1.34-.34c.88-.37,1.88-.76,3-1.19s2.52-1.06,4.22-1.91c.22-.12.54-.26.94-.45S186.62,159.16,186.66,159.34Zm-.06-25.08a5.63,5.63,0,0,1-.22,1.67,4.4,4.4,0,0,1-.88,1.5,5.52,5.52,0,0,1-1.48,1.11,1.77,1.77,0,0,1-1.36.27c-.22-.07-.48-.37-.77-.91a4.41,4.41,0,0,1-.39-2.3,3.53,3.53,0,0,1,.47-1.72,7.18,7.18,0,0,1,1.19-1.39,6.72,6.72,0,0,1,1.31-.83,1.24,1.24,0,0,1,1.94.86A5.12,5.12,0,0,1,186.6,134.26Z"/><path class="cls-1" d="M232.09,159.4a1,1,0,0,1-.13.67,1.31,1.31,0,0,1-.48.55,22.79,22.79,0,0,1-2.27,1.25c-1,.49-2,1-3,1.52a12.64,12.64,0,0,1-1.36.64c-.64.28-1.36.55-2.16.83s-1.62.53-2.47.75a8.69,8.69,0,0,1-2.27.33q-3,0-3-2.1c0-.74.82-2.8,2.44-6.16s2.45-5.55,2.45-6.66c0-.37,0-.61-.12-.72s-.32,0-.75.25-.93.56-1.52,1-1.21.85-1.86,1.33-1.23.94-1.75,1.39a60.38,60.38,0,0,0-5.05,4.82,45.52,45.52,0,0,0-4.71,6,2.35,2.35,0,0,1-1.2.58,9.83,9.83,0,0,1-2.69.3c-.59,0-.91-.08-1-.24s.07-.51.37-1q1.6-3.49,2.88-6.33l1.08-2.38c.35-.78.67-1.48.94-2.11s.52-1.16.73-1.58l.35-.75c.3-.55.39-.87.28-.94a.34.34,0,0,0-.28,0,7.72,7.72,0,0,0-3.19,1.38,30.29,30.29,0,0,0-4.13,3.33c-1.29,1.19-2.48,2.31-3.55,3.36l-3.49,3.41a27.32,27.32,0,0,1-3.39,2.91,4.32,4.32,0,0,1-2,1h-.67c-.18,0-.24-.16-.16-.5a40.58,40.58,0,0,1,1.33-4.46c.52-1.42,1.14-3,1.89-4.63a26.81,26.81,0,0,1,4-6.86,6.69,6.69,0,0,1,4.16-2.46l.56-.14a1.06,1.06,0,0,1,.55,0,.39.39,0,0,1,.28.33,2.34,2.34,0,0,1-.22,1c-.15.37-.38.87-.67,1.5l-.94,2c-.34.7-.68,1.4-1,2.1s-.63,1.33-.86,1.86-.38,1-.47,1.25-.07.37.08.22c1.11-.88,2-1.63,2.75-2.22s1.35-1.11,1.89-1.54,1-.85,1.47-1.2.94-.74,1.49-1.14c2-1.4,3.59-2.48,4.89-3.22a6.84,6.84,0,0,1,3.16-1.11,2.68,2.68,0,0,1,1.66.61,1.79,1.79,0,0,1,.72,1.5,9.16,9.16,0,0,1-.44,1c-.3.64-.65,1.4-1.06,2.25s-.8,1.71-1.19,2.57-.69,1.53-.91,2l-.14.28a.26.26,0,0,0,0,.25c0,.06.13,0,.28,0a6.72,6.72,0,0,0,.77-.5c1.07-1,2.27-2,3.58-3.1a46.58,46.58,0,0,1,4.52-3.33c.67-.41,1.35-.84,2-1.28s1.35-.85,2-1.22a18.77,18.77,0,0,1,1.75-.91,3.11,3.11,0,0,1,1.22-.36,2.45,2.45,0,0,1,.8.16,3.92,3.92,0,0,1,.89.45,2,2,0,0,1,.64.66,1,1,0,0,1,0,.83c-.19.38-.44.91-.75,1.61s-.67,1.49-1.08,2.36l-1.31,2.8c-.46,1-.9,2-1.32,2.92l-1.22,2.66-1,2.08a.48.48,0,0,0,0,.44.87.87,0,0,0,.34.28,1.23,1.23,0,0,0,.47.14l.42,0a6,6,0,0,0,1.25-.39c.68-.26,1.49-.58,2.43-1s2-.81,3-1.27,2-.93,2.86-1.37l.91-.44Q232,159.12,232.09,159.4Z"/><path class="cls-1" d="M260.89,159.29a1.08,1.08,0,0,1-.14.66,1.74,1.74,0,0,1-.47.61c-.52.3-1.27.69-2.24,1.2s-2,1-3,1.53a9.92,9.92,0,0,1-1.55.74c-.52.18-1,.37-1.44.56a12.4,12.4,0,0,1-4.28,1,1.94,1.94,0,0,1-2.16-2.22v-2.77a30.17,30.17,0,0,1-3.55,2.55,25.71,25.71,0,0,1-3.08,1.61,14.17,14.17,0,0,1-2.55.86,9.8,9.8,0,0,1-2,.25,5,5,0,0,1-2.58-.58,4.77,4.77,0,0,1-1.52-1.39,4.23,4.23,0,0,1-.72-1.67,6.81,6.81,0,0,1-.17-1.36q0-4,6.54-9.26a26.51,26.51,0,0,1,6.58-4,17.43,17.43,0,0,1,6.13-1.36,16.45,16.45,0,0,1,2.64.19,5.84,5.84,0,0,1,1.69.52,2.65,2.65,0,0,1,.86.68,1.16,1.16,0,0,1,.24.62c0,.11-.15.28-.47.5a8,8,0,0,1-1.11.63,11.51,11.51,0,0,1-1.3.55,3.17,3.17,0,0,1-1,.26,2.72,2.72,0,0,1-1.44-.67,3.6,3.6,0,0,0-1.88-.72q-4.33,0-8.16,4.27a17.3,17.3,0,0,0-2.66,3.63,7.1,7.1,0,0,0-.89,3.36c0,.26,0,.54.05.86a2.57,2.57,0,0,0,.28.89,1.66,1.66,0,0,0,.7.66,2.72,2.72,0,0,0,1.3.26,9.18,9.18,0,0,0,3.27-.67,11.1,11.1,0,0,0,3.22-2,14.15,14.15,0,0,0,1.72-1.88q1.11-1.38,2.94-3.5,1.38-1.6,2.64-2.85a4.89,4.89,0,0,1,2-1.42c1.26-.3,2-.32,2.22-.08s.13.73-.27,1.47c-.63,1.26-1.2,2.4-1.69,3.44s-1,2-1.36,2.77a12.3,12.3,0,0,0-1.39,4.11.73.73,0,0,0,.83.83,4,4,0,0,0,.89-.27c.48-.19,1.08-.44,1.8-.76s1.51-.66,2.36-1.05,1.7-.81,2.55-1.25l1-.44Q260.83,159,260.89,159.29Z"/><path class="cls-1" d="M276.93,159.34a1.06,1.06,0,0,1-.15.67,1.63,1.63,0,0,1-.47.61c-.52.29-1.23.72-2.16,1.27a21.53,21.53,0,0,1-3,1.5c-1.59.7-3.13,1.31-4.63,1.81a12.46,12.46,0,0,1-3.86.74c-2.25,0-3.38-1-3.38-3.11a4.82,4.82,0,0,1,.39-1.62c.26-.69.59-1.57,1-2.64.15-.34.34-.81.58-1.42s.53-1.32.86-2.14.7-1.7,1.11-2.68.82-2,1.22-3l-4.05.61a2.27,2.27,0,0,1-.67.11.87.87,0,0,1-.41-.08c-.09-.06-.1-.17,0-.36a3.43,3.43,0,0,1,.89-1.45c.15-.07.68-.22,1.61-.47s2.14-.5,3.66-.8c.55-1.37,1.1-2.71,1.63-4l1.45-3.53c.42-1,.78-1.88,1.05-2.55s.44-1,.47-1.16a3.13,3.13,0,0,1,1.56-1.67c.92-.29,1.62-.52,2.11-.69l.83-.3a2.8,2.8,0,0,1,1.27-.12.56.56,0,0,1,.45.36,1.16,1.16,0,0,1-.08.61c-.1.25-.18.46-.26.64-.22.45-.52,1.07-.88,1.86s-.79,1.7-1.25,2.72-1,2.11-1.47,3.27-1.05,2.36-1.61,3.58l1.53-.28c.46-.07.86-.15,1.19-.22l1.11-.22c.33-.07.62-.13.88-.16a1.92,1.92,0,0,1,.61.08c.19.05.28.21.28.47s0,.35,0,.61a2.16,2.16,0,0,1-.23.78,2.08,2.08,0,0,1-.58.69,1.9,1.9,0,0,1-1.05.36l-1.81.22c-.9.11-1.95.26-3.13.44-.59,1.34-1.17,2.62-1.72,3.86s-1,2.35-1.47,3.33-.78,1.8-1.05,2.44-.46,1.06-.53,1.25c-.7,1.7-.76,2.88-.17,3.55s1.74.65,3.44-.06l3.05-1.24c1.15-.47,2.57-1.12,4.28-2,.22-.12.52-.26.91-.45S276.85,159.16,276.93,159.34Z"/><path class="cls-1" d="M295.84,159.34a1.09,1.09,0,0,1-.13.67,1.89,1.89,0,0,1-.48.61c-.48.29-1.22.69-2.22,1.19s-2,1-2.94,1.52a10.75,10.75,0,0,1-1.61.76c-.55.2-1.07.39-1.55.58a24.36,24.36,0,0,1-3.74,1,14,14,0,0,1-4,.17,6.44,6.44,0,0,1-3.3-1.34,5.11,5.11,0,0,1-1.66-3.61,6.57,6.57,0,0,1,1.44-4.68,34.15,34.15,0,0,1,4.49-5,23.42,23.42,0,0,1,3.44-2.49,17.58,17.58,0,0,1,3.91-1.77,11.72,11.72,0,0,1,3.78-.58,4.52,4.52,0,0,1,3,1.08,2.71,2.71,0,0,1,.86,1.21,4.77,4.77,0,0,1,.25,1.5c0,2-1.13,3.77-3.39,5.33q-.33.22-1.32.75l-2.31,1.19c-.87.45-1.79.91-2.77,1.39s-1.9.94-2.75,1.38l-2.19,1.17a5.71,5.71,0,0,0-1.08.67,5.39,5.39,0,0,0,.64.86,2.92,2.92,0,0,0,1.21.75,5.82,5.82,0,0,0,2.12.19,15,15,0,0,0,3.35-.75,27.87,27.87,0,0,0,3.08-1.22q1.69-.78,4.24-2.05l.94-.45C295.58,159.16,295.8,159.16,295.84,159.34Zm-6.16-10.09a1.6,1.6,0,0,0-1.66-.39A5.18,5.18,0,0,0,286.1,150a15.48,15.48,0,0,0-1.94,2.05c-.64.81-1.23,1.62-1.75,2.41s-1,1.51-1.33,2.14-.59,1-.66,1.22a2.55,2.55,0,0,0-.14.47.73.73,0,0,0,.14.64c.07.07.37,0,.89-.31s1.1-.62,1.77-1,1.34-.83,2-1.3,1.24-.84,1.69-1.13q2.77-1.78,3.36-3.36A2.1,2.1,0,0,0,289.68,149.25Z"/><path class="cls-1" d="M313.38,148.19c0,.37-.32.87-.95,1.5-.22.22-.46.47-.69.75a1.49,1.49,0,0,1-.59.47.59.59,0,0,1-.33-.08c-.07-.06-.18-.15-.31-.28a4.19,4.19,0,0,0-.6-.47,10,10,0,0,0-1.25-.67,3.61,3.61,0,0,0-.72-.25,1,1,0,0,0-.67.06.71.71,0,0,0-.36.58,3.07,3.07,0,0,0,.25,1.38c.22.63.44,1.3.67,2s.43,1.36.63,2,.37,1.15.5,1.61a4.37,4.37,0,0,1,.19.92,5.83,5.83,0,0,1-1,3.11,11.91,11.91,0,0,1-2.52,2.83,11.54,11.54,0,0,1-2.94,1.72,7.62,7.62,0,0,1-2.66.6,6.12,6.12,0,0,1-4.55-2.09,5.87,5.87,0,0,1-1.08-1.79,4.53,4.53,0,0,1-.36-1.66v-2.28a2.62,2.62,0,0,1,1.05-2.05,6.85,6.85,0,0,1,.94-.75l1.78-1.25c.3-.22.51-.2.64.05a2.9,2.9,0,0,1,.22,1.06,10,10,0,0,1-.06,1.5c-.05.55-.08,1-.08,1.44a6.11,6.11,0,0,0,.89,3.83,3.28,3.28,0,0,0,2.88,1.44q3,0,3.05-3.54a14.42,14.42,0,0,0-1.27-3.37c-.41-.92-.72-1.7-.95-2.32a4.87,4.87,0,0,1-.33-1.5q0-2,3-4.25a7.76,7.76,0,0,1,4.55-2A3.9,3.9,0,0,1,312,147C312.93,147.42,313.38,147.82,313.38,148.19Z"/><rect class="cls-2" width="415" height="185"/></g></g></svg>