<svg width="180" height="180" viewBox="0 0 180 180" fill="none" xmlns="http://www.w3.org/2000/svg">
  <rect width="180" height="180" fill="#1C1C1E"/>
  <g transform="translate(90, 90)">
    <circle cx="0" cy="0" r="54" stroke="#F0EDE6" stroke-width="3" fill="none"/>
    <circle cx="0" cy="0" r="44" fill="#C44A20"/>
    <rect x="-2.5" y="-58" width="5" height="3" rx="1" fill="#F0EDE6" transform="rotate(0 0 0)"/>
    <rect x="-2.5" y="-58" width="5" height="3" rx="1" fill="#F0EDE6" transform="rotate(18 0 0)"/>
    <rect x="-2.5" y="-58" width="5" height="3" rx="1" fill="#F0EDE6" transform="rotate(36 0 0)"/>
    <rect x="-2.5" y="-58" width="5" height="3" rx="1" fill="#F0EDE6" transform="rotate(90 0 0)"/>
    <rect x="-2.5" y="-58" width="5" height="3" rx="1" fill="#F0EDE6" transform="rotate(108 0 0)"/>
    <rect x="-2.5" y="-58" width="5" height="3" rx="1" fill="#F0EDE6" transform="rotate(162 0 0)"/>
    <rect x="-2.5" y="-58" width="5" height="3" rx="1" fill="#F0EDE6" transform="rotate(180 0 0)"/>
    <rect x="-2.5" y="-58" width="5" height="3" rx="1" fill="#F0EDE6" transform="rotate(198 0 0)"/>
    <rect x="-2.5" y="-58" width="5" height="3" rx="1" fill="#F0EDE6" transform="rotate(216 0 0)"/>
    <rect x="-2.5" y="-58" width="5" height="3" rx="1" fill="#F0EDE6" transform="rotate(270 0 0)"/>
    <rect x="-2.5" y="-58" width="5" height="3" rx="1" fill="#F0EDE6" transform="rotate(288 0 0)"/>
    <rect x="-2.5" y="-58" width="5" height="3" rx="1" fill="#F0EDE6" transform="rotate(324 0 0)"/>
    <rect x="-2.5" y="-58" width="5" height="3" rx="1" fill="#F0EDE6" transform="rotate(342 0 0)"/>
    <g transform="rotate(-60 0 0)">
      <rect x="-2" y="-52" width="4" height="14" rx="2" fill="#B8B0A4"/>
      <polygon points="0,-54 -4,-48 4,-48" fill="#B8B0A4"/>
    </g>
    <circle cx="0" cy="0" r="28" stroke="#F0EDE6" stroke-width="2" fill="#1C1C1E"/>
    <circle cx="0" cy="0" r="11" fill="#C44A20" stroke="#F0EDE6" stroke-width="1.5"/>
    <circle cx="0" cy="0" r="3" fill="#F0EDE6"/>
    <line x1="-3" y1="0" x2="3" y2="0" stroke="#1C1C1E" stroke-width="1"/>
  </g>
</svg>
