<svg width="1200" height="630" viewBox="0 0 1200 630" fill="none" xmlns="http://www.w3.org/2000/svg">
  <rect width="1200" height="630" fill="#1C1C1E"/>

  <g transform="translate(600, 315)">
    <circle cx="0" cy="0" r="162" stroke="#F0EDE6" stroke-width="4.5" fill="none"/>
    <circle cx="0" cy="0" r="132" fill="#C44A20"/>

    <rect x="-7.5" y="-174" width="15" height="9" rx="3" fill="#F0EDE6" transform="rotate(0 0 0)"/>
    <rect x="-7.5" y="-174" width="15" height="9" rx="3" fill="#F0EDE6" transform="rotate(18 0 0)"/>
    <rect x="-7.5" y="-174" width="15" height="9" rx="3" fill="#F0EDE6" transform="rotate(36 0 0)"/>
    <rect x="-7.5" y="-174" width="15" height="9" rx="3" fill="#F0EDE6" transform="rotate(90 0 0)"/>
    <rect x="-7.5" y="-174" width="15" height="9" rx="3" fill="#F0EDE6" transform="rotate(108 0 0)"/>
    <rect x="-7.5" y="-174" width="15" height="9" rx="3" fill="#F0EDE6" transform="rotate(162 0 0)"/>
    <rect x="-7.5" y="-174" width="15" height="9" rx="3" fill="#F0EDE6" transform="rotate(180 0 0)"/>
    <rect x="-7.5" y="-174" width="15" height="9" rx="3" fill="#F0EDE6" transform="rotate(198 0 0)"/>
    <rect x="-7.5" y="-174" width="15" height="9" rx="3" fill="#F0EDE6" transform="rotate(216 0 0)"/>
    <rect x="-7.5" y="-174" width="15" height="9" rx="3" fill="#F0EDE6" transform="rotate(270 0 0)"/>
    <rect x="-7.5" y="-174" width="15" height="9" rx="3" fill="#F0EDE6" transform="rotate(288 0 0)"/>
    <rect x="-7.5" y="-174" width="15" height="9" rx="3" fill="#F0EDE6" transform="rotate(324 0 0)"/>
    <rect x="-7.5" y="-174" width="15" height="9" rx="3" fill="#F0EDE6" transform="rotate(342 0 0)"/>

    <g transform="rotate(-60 0 0)">
      <rect x="-6" y="-156" width="12" height="42" rx="6" fill="#B8B0A4"/>
      <polygon points="0,-162 -12,-144 12,-144" fill="#B8B0A4"/>
    </g>

    <circle cx="0" cy="0" r="84" stroke="#F0EDE6" stroke-width="6" fill="#1C1C1E"/>
    <circle cx="0" cy="0" r="33" fill="#C44A20" stroke="#F0EDE6" stroke-width="4.5"/>
    <circle cx="0" cy="0" r="9" fill="#F0EDE6"/>
    <line x1="-9" y1="0" x2="9" y2="0" stroke="#1C1C1E" stroke-width="3"/>
  </g>
</svg>
